<svg width="25" height="24" viewBox="0 0 25 24" fill="none" xmlns="http://www.w3.org/2000/svg">
<path fill-rule="evenodd" clip-rule="evenodd" d="M11.7869 1.32413C12.0889 1.26499 12.4008 1.2811 12.6951 1.37103C12.989 1.46084 13.2563 1.62153 13.4736 1.83894C13.4738 1.83921 13.4741 1.83948 13.4744 1.83975L23.2575 11.6229C23.4326 11.7955 23.5719 12.0011 23.6674 12.2278C23.7638 12.4569 23.8135 12.703 23.8135 12.9516C23.8135 13.2002 23.7638 13.4463 23.6674 13.6754C23.5719 13.9021 23.4326 14.1077 23.2575 14.2803L14.7802 22.7576C14.6076 22.9328 14.402 23.0721 14.1753 23.1675C13.9462 23.264 13.7001 23.3136 13.4515 23.3136C13.2029 23.3136 12.9568 23.264 12.7276 23.1675C12.5009 23.0721 12.2954 22.9328 12.1228 22.7576L2.33963 12.9745C2.33935 12.9742 2.33907 12.9739 2.33879 12.9737C2.12139 12.7564 1.96071 12.4891 1.8709 12.1952C1.78098 11.9009 1.76487 11.589 1.824 11.287L1.82477 11.2831L1.82478 11.2831L3.33416 3.71743C3.42309 3.27166 3.77154 2.92321 4.21731 2.83428L11.7829 1.3249L12.003 2.42816L11.7869 1.32413ZM11.8823 3.42963L11.8825 3.42991C11.8824 3.42981 11.8824 3.42972 11.8823 3.42963ZM11.8817 3.42907L11.8823 3.42963C11.8821 3.42944 11.8819 3.42926 11.8817 3.42907ZM12.0238 3.57118L21.4042 12.9516L13.4515 20.9044L4.07106 11.5239L5.39378 4.89391L12.0238 3.57118Z" fill="#3E3A40"/>
<path d="M8.375 9.375C9.20343 9.375 9.875 8.70343 9.875 7.875C9.875 7.04657 9.20343 6.375 8.375 6.375C7.54657 6.375 6.875 7.04657 6.875 7.875C6.875 8.70343 7.54657 9.375 8.375 9.375Z" fill="#3E3A40"/>
</svg>
