<svg width="20" height="20" viewBox="0 0 20 20" fill="none" xmlns="http://www.w3.org/2000/svg">
<path fill-rule="evenodd" clip-rule="evenodd" d="M10 2.51941L2.875 8.99426V17.125H6.625V13C6.625 12.5027 6.82254 12.0258 7.17417 11.6741C7.52581 11.3225 8.00272 11.125 8.5 11.125H11.5C11.9973 11.125 12.4742 11.3225 12.8258 11.6741C13.1775 12.0258 13.375 12.5027 13.375 13V17.125H17.125V8.99426L10 2.51941ZM8.73618 0.627638C9.08159 0.312458 9.53234 0.137695 10 0.137695C10.4677 0.137695 10.9184 0.312458 11.2638 0.627638C11.2644 0.628187 11.265 0.628737 11.2656 0.629287L18.7629 7.44238L18.7787 7.45706C18.9633 7.63139 19.1111 7.84089 19.2135 8.07322C19.3159 8.30555 19.3707 8.55602 19.3749 8.80988L19.375 8.82808V17.5C19.375 17.9972 19.1775 18.4741 18.8258 18.8258C18.4742 19.1774 17.9973 19.375 17.5 19.375H13C12.5027 19.375 12.0258 19.1774 11.6742 18.8258C11.3225 18.4741 11.125 17.9972 11.125 17.5V13.375H8.875V17.5C8.875 17.9972 8.67746 18.4742 8.32583 18.8258C7.97419 19.1774 7.49728 19.375 7 19.375H2.5C2.00272 19.375 1.52581 19.1774 1.17417 18.8258C0.822544 18.4742 0.625 17.9972 0.625 17.5V8.82808L0.625147 8.80988C0.629254 8.55602 0.684115 8.30555 0.7865 8.07322C0.888884 7.84089 1.03672 7.63139 1.22131 7.45706L1.23715 7.44238L8.73438 0.629287C8.73498 0.628737 8.73558 0.628187 8.73618 0.627638Z" fill="#3E3A40"/>
</svg>
