<svg width="203" height="40" viewBox="0 0 203 40" fill="none" xmlns="http://www.w3.org/2000/svg">
<g filter="url(#filter0_d_669_1434)">
<mask id="path-1-outside-1_669_1434" maskUnits="userSpaceOnUse" x="4" y="0.757202" width="195" height="31" fill="black">
<rect fill="white" x="4" y="0.757202" width="195" height="31"/>
<path d="M5.56531 25.0607C5.18844 25.0607 5 24.8723 5 24.4954V8.94926C5 8.59332 5.14656 8.41535 5.43969 8.41535H8.54892C8.84205 8.41535 8.98861 8.57238 8.98861 8.88645V10.5196C8.98861 10.6452 9.02002 10.729 9.08283 10.7708C9.14564 10.7918 9.22939 10.7499 9.33408 10.6452C9.92033 10.1218 10.4856 9.67161 11.03 9.29473C11.5953 8.91786 12.1711 8.62473 12.7574 8.41535C13.3646 8.18504 14.0032 8.06988 14.6732 8.06988C15.8457 8.06988 16.8088 8.34207 17.5625 8.88645C18.3163 9.43083 18.8397 10.1218 19.1329 10.9593C19.1747 11.043 19.2376 11.0744 19.3213 11.0535C19.4051 11.0326 19.4888 10.9802 19.5726 10.8965C20.1169 10.3521 20.6927 9.87052 21.2999 9.45176C21.9071 9.03301 22.5352 8.70848 23.1843 8.47817C23.8334 8.22692 24.4824 8.10129 25.1315 8.10129C26.6181 8.10129 27.7906 8.55145 28.649 9.45176C29.5074 10.3311 29.9367 11.5351 29.9367 13.0635V24.4012C29.9367 24.8409 29.7168 25.0607 29.2771 25.0607H26.3877C26.1993 25.0607 26.0632 25.0189 25.9795 24.9351C25.8957 24.8514 25.8538 24.7048 25.8538 24.4954V13.6916C25.8538 12.8751 25.6445 12.2469 25.2257 11.8072C24.8279 11.3466 24.2207 11.1163 23.4041 11.1163C22.9226 11.1163 22.4619 11.2105 22.0223 11.399C21.5826 11.5665 21.1848 11.7863 20.8288 12.0585C20.4729 12.3307 20.1588 12.6029 19.8866 12.8751C19.7401 13.0216 19.6354 13.1682 19.5726 13.3147C19.5307 13.4404 19.5097 13.5974 19.5097 13.7858V24.4012C19.5097 24.8409 19.2899 25.0607 18.8502 25.0607H15.9608C15.7933 25.0607 15.6572 25.0189 15.5525 24.9351C15.4688 24.8514 15.4269 24.7048 15.4269 24.4954V13.6916C15.4269 12.8751 15.228 12.2469 14.8302 11.8072C14.4324 11.3466 13.8147 11.1163 12.9772 11.1163C12.2653 11.1163 11.6058 11.2943 10.9986 11.6502C10.4124 12.0061 9.77377 12.5401 9.08283 13.2519V24.4326C9.08283 24.8514 8.84205 25.0607 8.36048 25.0607H5.56531Z"/>
<path d="M42.878 23.3334C42.1662 23.9615 41.3915 24.464 40.554 24.8409C39.7165 25.1968 38.7638 25.3748 37.696 25.3748C36.0838 25.3748 34.8171 24.956 33.8958 24.1185C32.9955 23.2601 32.5454 22.1504 32.5454 20.7895C32.5454 19.6379 32.8908 18.6434 33.5818 17.8059C34.2727 16.9474 35.2777 16.2774 36.5968 15.7959C37.9158 15.3143 39.4966 15.0316 41.3391 14.9479L42.9095 14.8537C43.0351 14.8327 43.1502 14.7908 43.2549 14.728C43.3596 14.6652 43.412 14.5501 43.412 14.3826V13.6602C43.412 12.739 43.1398 12.0271 42.5954 11.5246C42.051 11.0011 41.2973 10.7394 40.3341 10.7394C39.6013 10.7394 38.9104 10.9069 38.2613 11.2419C37.6332 11.556 37.0888 12.0794 36.6282 12.8122C36.5654 12.9379 36.4921 13.0216 36.4083 13.0635C36.3455 13.1054 36.2199 13.1054 36.0315 13.0635L33.3933 12.404C33.2886 12.3621 33.2049 12.2993 33.1421 12.2155C33.1002 12.1318 33.1421 11.9643 33.2677 11.713C33.833 10.5196 34.7229 9.61926 35.9372 9.01207C37.1726 8.40488 38.701 8.10129 40.5226 8.10129C42.1348 8.10129 43.4329 8.32113 44.417 8.76082C45.422 9.20051 46.1548 9.81817 46.6154 10.6138C47.076 11.3885 47.3063 12.3097 47.3063 13.3776V24.4326C47.3063 24.6629 47.2645 24.8304 47.1807 24.9351C47.1179 25.0189 46.9818 25.0607 46.7724 25.0607H44.1029C43.9145 25.0607 43.7784 24.9874 43.6946 24.8409C43.6109 24.6943 43.5585 24.5164 43.5376 24.307L43.4748 23.3648C43.4329 23.0088 43.234 22.9984 42.878 23.3334ZM43.412 17.4604C43.412 17.0835 43.2549 16.9055 42.9409 16.9265L41.6532 17.0207C40.9832 17.0626 40.3341 17.1673 39.706 17.3348C39.0988 17.4813 38.5544 17.6907 38.0729 17.9629C37.6122 18.2141 37.2354 18.5387 36.9422 18.9365C36.6701 19.3134 36.534 19.7635 36.534 20.287C36.534 20.9988 36.7852 21.5642 37.2877 21.9829C37.8112 22.4017 38.5126 22.611 39.3919 22.611C39.9573 22.611 40.4807 22.5168 40.9623 22.3284C41.4438 22.1399 41.8626 21.8992 42.2185 21.606C42.5745 21.3129 42.8571 21.0093 43.0665 20.6952C43.2968 20.3602 43.412 20.0252 43.412 19.6902V17.4604Z"/>
<path d="M51.7854 25.0607C51.5761 25.0607 51.4295 25.0189 51.3457 24.9351C51.262 24.8304 51.2201 24.6839 51.2201 24.4954V8.94926C51.2201 8.59332 51.3667 8.41535 51.6598 8.41535H54.7062C54.9994 8.41535 55.1459 8.57238 55.1459 8.88645V10.8022C55.1459 10.9279 55.1878 11.0116 55.2715 11.0535C55.3553 11.0744 55.4495 11.0221 55.5542 10.8965C56.0148 10.2893 56.5069 9.78677 57.0303 9.38895C57.5747 8.9702 58.1191 8.65613 58.6634 8.44676C59.2287 8.21645 59.7731 8.10129 60.2966 8.10129C61.0503 8.10129 61.4272 8.26879 61.4272 8.60379V11.6188C61.4272 11.9119 61.2911 12.0376 61.0189 11.9957C60.7048 11.9119 60.3698 11.8596 60.0139 11.8386C59.6789 11.7968 59.3648 11.7758 59.0717 11.7758C58.6739 11.7758 58.2447 11.8596 57.784 12.0271C57.3444 12.1946 56.9361 12.4354 56.5592 12.7494C56.1823 13.0426 55.8787 13.3671 55.6484 13.723C55.4181 14.079 55.3029 14.4454 55.3029 14.8223V24.4326C55.3029 24.8514 55.0622 25.0607 54.5806 25.0607H51.7854Z"/>
<path d="M79.9297 24.4012C80.0344 24.5478 80.0553 24.6943 79.9925 24.8409C79.9297 24.9874 79.7831 25.0607 79.5528 25.0607H76.0981C75.9097 25.0607 75.7527 25.0189 75.627 24.9351C75.5223 24.8304 75.4281 24.6839 75.3444 24.4954L71.5756 17.4604C71.5128 17.3138 71.45 17.2301 71.3872 17.2091C71.3244 17.1882 71.2302 17.2405 71.1045 17.3662L68.4978 19.9415C68.414 20.0252 68.3408 20.1195 68.2779 20.2241C68.2361 20.3288 68.2151 20.4754 68.2151 20.6638V24.3698C68.2151 24.621 68.1628 24.799 68.0581 24.9037C67.9534 25.0084 67.765 25.0607 67.4928 25.0607H64.7604C64.5092 25.0607 64.3417 25.0189 64.2579 24.9351C64.1742 24.8304 64.1323 24.6839 64.1323 24.4954V2.29111C64.1323 1.93517 64.2893 1.7572 64.6034 1.7572H67.7755C68.0686 1.7572 68.2151 1.9247 68.2151 2.25971V15.733C68.2151 15.8587 68.2465 15.9424 68.3094 15.9843C68.3722 16.0262 68.4664 15.9738 68.592 15.8273L75.1245 8.85504C75.4177 8.56192 75.6794 8.41535 75.9097 8.41535H78.7677C79.0399 8.41535 79.1969 8.48863 79.2388 8.6352C79.3016 8.78176 79.2388 8.94926 79.0503 9.1377L74.4336 13.7858C74.3499 13.8905 74.2975 13.9952 74.2766 14.0999C74.2556 14.2046 74.2975 14.3616 74.4022 14.571L79.9297 24.4012Z"/>
<path d="M84.9143 18.0257C84.9143 18.8841 85.1132 19.6588 85.511 20.3498C85.9088 21.0198 86.4532 21.5537 87.1441 21.9515C87.856 22.3284 88.6307 22.5168 89.4682 22.5168C90.3266 22.5168 91.1013 22.3388 91.7922 21.9829C92.5041 21.627 93.1741 21.0512 93.8023 20.2556C93.886 20.1509 93.9593 20.0985 94.0221 20.0985C94.0849 20.0776 94.1896 20.109 94.3362 20.1927L96.252 21.0407C96.5241 21.1663 96.5555 21.3548 96.3462 21.606C95.718 22.5273 95.0376 23.2706 94.3048 23.8359C93.5929 24.3803 92.7972 24.7781 91.9179 25.0293C91.0594 25.2596 90.0858 25.3748 88.9971 25.3748C87.4058 25.3748 85.9821 25.0189 84.7258 24.307C83.4696 23.5951 82.475 22.611 81.7422 21.3548C81.0303 20.0776 80.6744 18.612 80.6744 16.9579C80.6744 15.1363 81.0408 13.566 81.7736 12.2469C82.5274 10.9279 83.5324 9.91239 84.7886 9.20051C86.0449 8.4677 87.4268 8.10129 88.9343 8.10129C90.5255 8.10129 91.9074 8.44676 93.0799 9.1377C94.2733 9.82864 95.2051 10.8232 95.8751 12.1213C96.5451 13.3985 96.8801 14.9583 96.8801 16.8009C96.8801 17.0102 96.8591 17.1777 96.8173 17.3034C96.7963 17.429 96.6498 17.5023 96.3776 17.5232H85.2597C85.1341 17.5232 85.0399 17.5651 84.9771 17.6488C84.9352 17.7326 84.9143 17.8582 84.9143 18.0257ZM92.3576 15.1991C92.5669 15.1991 92.703 15.1782 92.7658 15.1363C92.8496 15.0735 92.8915 14.9479 92.8915 14.7594C92.8915 14.1104 92.7449 13.4718 92.4518 12.8437C92.1587 12.2155 91.7294 11.7026 91.1641 11.3047C90.5988 10.886 89.9079 10.6766 89.0913 10.6766C88.2538 10.6766 87.521 10.886 86.8928 11.3047C86.2647 11.7026 85.7832 12.2469 85.4482 12.9379C85.1341 13.6079 84.9771 14.3616 84.9771 15.1991H92.3576Z"/>
<path d="M105.557 11.2733C105.348 11.2733 105.243 11.3885 105.243 11.6188V20.0043C105.243 20.8209 105.411 21.3862 105.746 21.7003C106.081 22.0143 106.604 22.1713 107.316 22.1713H109.169C109.295 22.1713 109.399 22.2132 109.483 22.297C109.567 22.3807 109.609 22.4854 109.609 22.611L109.577 24.2442C109.577 24.5792 109.378 24.7885 108.981 24.8723C108.667 24.9142 108.3 24.956 107.881 24.9979C107.463 25.0189 107.044 25.0398 106.625 25.0607C106.227 25.0607 105.861 25.0607 105.526 25.0607C104.123 25.0607 103.045 24.7362 102.291 24.0871C101.537 23.4171 101.16 22.4121 101.16 21.0721V11.6816C101.16 11.4094 101.035 11.2733 100.784 11.2733H98.6793C98.3443 11.2733 98.1768 11.1163 98.1768 10.8022V8.82364C98.1768 8.55145 98.3338 8.41535 98.6479 8.41535H100.972C101.16 8.41535 101.255 8.31067 101.255 8.10129L101.663 3.26471C101.684 2.92971 101.83 2.76221 102.103 2.76221H104.898C105.191 2.76221 105.337 2.94018 105.337 3.29612V8.10129C105.337 8.28973 105.432 8.38395 105.62 8.38395H109.169C109.483 8.38395 109.64 8.53051 109.64 8.82364V10.8022C109.64 11.1163 109.462 11.2733 109.106 11.2733H105.557Z"/>
<path d="M122.736 12.5296C122.339 12.0061 121.815 11.5665 121.166 11.2105C120.517 10.8546 119.721 10.6766 118.779 10.6766C117.879 10.6766 117.125 10.8546 116.518 11.2105C115.911 11.5665 115.607 12.069 115.607 12.718C115.607 13.0321 115.733 13.3357 115.984 13.6288C116.235 13.9219 116.79 14.1837 117.649 14.414L121.386 15.419C123.019 15.8168 124.181 16.4449 124.872 17.3034C125.584 18.1409 125.94 19.0935 125.94 20.1613C125.94 21.2501 125.626 22.1818 124.998 22.9565C124.39 23.7312 123.532 24.3279 122.422 24.7467C121.334 25.1654 120.088 25.3748 118.685 25.3748C116.884 25.3748 115.345 25.0503 114.068 24.4012C112.791 23.7312 111.891 22.9042 111.367 21.9201C111.304 21.7945 111.273 21.6793 111.273 21.5746C111.273 21.449 111.325 21.3443 111.43 21.2606L113.283 20.3184C113.451 20.2137 113.587 20.1718 113.691 20.1927C113.796 20.2137 113.88 20.266 113.943 20.3498C114.257 20.7895 114.613 21.1873 115.01 21.5432C115.429 21.8992 115.932 22.1818 116.518 22.3912C117.125 22.6006 117.858 22.6948 118.716 22.6738C119.365 22.6738 119.952 22.5901 120.475 22.4226C121.019 22.2551 121.449 22.0248 121.763 21.7317C122.077 21.4176 122.234 21.0407 122.234 20.601C122.234 20.1823 122.056 19.8159 121.7 19.5018C121.344 19.1877 120.705 18.9156 119.784 18.6852L116.581 17.9315C114.989 17.5546 113.817 16.9893 113.063 16.2355C112.33 15.4818 111.964 14.5396 111.964 13.409C111.964 12.3621 112.236 11.4408 112.781 10.6452C113.346 9.84958 114.141 9.23192 115.167 8.79223C116.193 8.3316 117.408 8.10129 118.811 8.10129C120.36 8.10129 121.7 8.38395 122.831 8.94926C123.961 9.51458 124.788 10.216 125.312 11.0535C125.395 11.1582 125.448 11.2733 125.469 11.399C125.511 11.5246 125.458 11.6293 125.312 11.713L123.364 12.6866C123.239 12.7494 123.124 12.7704 123.019 12.7494C122.914 12.7076 122.82 12.6343 122.736 12.5296Z"/>
<path d="M132.517 8.41535C132.915 8.41535 133.113 8.60379 133.113 8.98067V10.0485C133.113 10.195 133.155 10.2788 133.239 10.2997C133.323 10.2997 133.417 10.2474 133.522 10.1427C133.836 9.84958 134.192 9.54598 134.59 9.23192C135.008 8.91785 135.511 8.65613 136.097 8.44676C136.683 8.21645 137.395 8.10129 138.233 8.10129C139.489 8.10129 140.609 8.41535 141.593 9.04348C142.577 9.65067 143.362 10.5824 143.949 11.8386C144.535 13.074 144.828 14.6443 144.828 16.5496C144.828 18.5177 144.535 20.1613 143.949 21.4804C143.362 22.7785 142.546 23.7521 141.499 24.4012C140.473 25.0503 139.29 25.3748 137.95 25.3748C137.092 25.3748 136.306 25.2387 135.595 24.9665C134.883 24.6943 134.244 24.2965 133.679 23.7731C133.469 23.5846 133.323 23.5009 133.239 23.5218C133.155 23.5428 133.113 23.6893 133.113 23.9615V29.7403C133.113 30.0753 132.967 30.2428 132.674 30.2428H129.47C129.177 30.2428 129.031 30.0753 129.031 29.7403V9.04348C129.031 8.81317 129.073 8.65614 129.156 8.57238C129.24 8.4677 129.408 8.41535 129.659 8.41535H132.517ZM133.113 20.9779C133.595 21.5013 134.108 21.9201 134.652 22.2342C135.218 22.5482 135.846 22.7053 136.537 22.7053C137.374 22.7053 138.097 22.4959 138.704 22.0771C139.332 21.6374 139.813 20.9674 140.148 20.0671C140.504 19.1459 140.682 17.9629 140.682 16.5182C140.682 15.0944 140.504 13.9638 140.148 13.1263C139.813 12.2888 139.332 11.6921 138.704 11.3361C138.097 10.9593 137.416 10.7708 136.662 10.7708C135.971 10.7708 135.354 10.9174 134.809 11.2105C134.286 11.4827 133.867 11.8386 133.553 12.2783C133.26 12.718 133.113 13.1787 133.113 13.6602V20.9779Z"/>
<path d="M157.217 23.3334C156.505 23.9615 155.73 24.464 154.893 24.8409C154.055 25.1968 153.103 25.3748 152.035 25.3748C150.423 25.3748 149.156 24.956 148.235 24.1185C147.334 23.2601 146.884 22.1504 146.884 20.7895C146.884 19.6379 147.23 18.6434 147.921 17.8059C148.612 16.9474 149.617 16.2774 150.936 15.7959C152.255 15.3143 153.835 15.0316 155.678 14.9479L157.248 14.8537C157.374 14.8327 157.489 14.7908 157.594 14.728C157.698 14.6652 157.751 14.5501 157.751 14.3826V13.6602C157.751 12.739 157.479 12.0271 156.934 11.5246C156.39 11.0011 155.636 10.7394 154.673 10.7394C153.94 10.7394 153.249 10.9069 152.6 11.2419C151.972 11.556 151.428 12.0794 150.967 12.8122C150.904 12.9379 150.831 13.0216 150.747 13.0635C150.684 13.1054 150.559 13.1054 150.37 13.0635L147.732 12.404C147.627 12.3621 147.544 12.2993 147.481 12.2155C147.439 12.1318 147.481 11.9643 147.607 11.713C148.172 10.5196 149.062 9.61926 150.276 9.01207C151.511 8.40488 153.04 8.10129 154.861 8.10129C156.474 8.10129 157.772 8.32113 158.756 8.76082C159.761 9.20051 160.494 9.81817 160.954 10.6138C161.415 11.3885 161.645 12.3097 161.645 13.3776V24.4326C161.645 24.6629 161.603 24.8304 161.52 24.9351C161.457 25.0189 161.321 25.0607 161.111 25.0607H158.442C158.253 25.0607 158.117 24.9874 158.033 24.8409C157.95 24.6943 157.897 24.5164 157.876 24.307L157.814 23.3648C157.772 23.0088 157.573 22.9984 157.217 23.3334ZM157.751 17.4604C157.751 17.0835 157.594 16.9055 157.28 16.9265L155.992 17.0207C155.322 17.0626 154.673 17.1673 154.045 17.3348C153.438 17.4813 152.893 17.6907 152.412 17.9629C151.951 18.2141 151.574 18.5387 151.281 18.9365C151.009 19.3134 150.873 19.7635 150.873 20.287C150.873 20.9988 151.124 21.5642 151.627 21.9829C152.15 22.4017 152.851 22.611 153.731 22.611C154.296 22.611 154.82 22.5168 155.301 22.3284C155.783 22.1399 156.201 21.8992 156.557 21.606C156.913 21.3129 157.196 21.0093 157.405 20.6952C157.636 20.3602 157.751 20.0252 157.751 19.6902V17.4604Z"/>
<path d="M172.908 8.10129C174.164 8.10129 175.253 8.32113 176.174 8.76082C177.096 9.17958 177.849 9.73442 178.436 10.4254C179.043 11.0954 179.503 11.8072 179.817 12.561C179.943 12.9379 179.838 13.1368 179.503 13.1577L176.74 13.5032C176.53 13.5451 176.384 13.4508 176.3 13.2205C176.028 12.7599 175.745 12.3516 175.452 11.9957C175.159 11.6397 174.824 11.3571 174.447 11.1477C174.07 10.9383 173.609 10.8336 173.065 10.8336C172.228 10.8336 171.484 11.064 170.835 11.5246C170.207 11.9643 169.715 12.6238 169.359 13.5032C169.024 14.3826 168.857 15.4609 168.857 16.738C168.857 18.0362 169.035 19.1249 169.391 20.0043C169.767 20.8837 170.28 21.5537 170.929 22.0143C171.578 22.454 172.353 22.6738 173.254 22.6738C174.196 22.6738 174.97 22.4331 175.578 21.9515C176.185 21.449 176.75 20.7581 177.274 19.8787C177.336 19.7949 177.399 19.7426 177.462 19.7216C177.525 19.7007 177.629 19.7112 177.776 19.7531L179.755 20.287C179.964 20.3498 180.027 20.5277 179.943 20.8209C179.734 21.3024 179.43 21.8154 179.032 22.3598C178.655 22.9042 178.184 23.4067 177.619 23.8673C177.054 24.307 176.373 24.6734 175.578 24.9665C174.803 25.2387 173.913 25.3748 172.908 25.3748C171.317 25.3748 169.903 25.0189 168.668 24.307C167.433 23.5742 166.459 22.5692 165.747 21.292C165.056 19.9938 164.711 18.4968 164.711 16.8009C164.711 15.084 165.067 13.5765 165.779 12.2783C166.491 10.9593 167.464 9.93333 168.7 9.20051C169.935 8.4677 171.338 8.10129 172.908 8.10129Z"/>
<path d="M186.034 18.0257C186.034 18.8841 186.233 19.6588 186.631 20.3498C187.029 21.0198 187.573 21.5537 188.264 21.9515C188.976 22.3284 189.751 22.5168 190.588 22.5168C191.447 22.5168 192.221 22.3388 192.912 21.9829C193.624 21.627 194.294 21.0512 194.922 20.2556C195.006 20.1509 195.079 20.0985 195.142 20.0985C195.205 20.0776 195.31 20.109 195.456 20.1927L197.372 21.0407C197.644 21.1663 197.675 21.3548 197.466 21.606C196.838 22.5273 196.157 23.2706 195.425 23.8359C194.713 24.3803 193.917 24.7781 193.038 25.0293C192.179 25.2596 191.206 25.3748 190.117 25.3748C188.526 25.3748 187.102 25.0189 185.846 24.307C184.589 23.5951 183.595 22.611 182.862 21.3548C182.15 20.0776 181.794 18.612 181.794 16.9579C181.794 15.1363 182.161 13.566 182.894 12.2469C183.647 10.9279 184.652 9.91239 185.909 9.20051C187.165 8.4677 188.547 8.10129 190.054 8.10129C191.645 8.10129 193.027 8.44676 194.2 9.1377C195.393 9.82864 196.325 10.8232 196.995 12.1213C197.665 13.3985 198 14.9583 198 16.8009C198 17.0102 197.979 17.1777 197.937 17.3034C197.916 17.429 197.77 17.5023 197.498 17.5232H186.38C186.254 17.5232 186.16 17.5651 186.097 17.6488C186.055 17.7326 186.034 17.8582 186.034 18.0257ZM193.477 15.1991C193.687 15.1991 193.823 15.1782 193.886 15.1363C193.97 15.0735 194.011 14.9479 194.011 14.7594C194.011 14.1104 193.865 13.4718 193.572 12.8437C193.279 12.2155 192.849 11.7026 192.284 11.3047C191.719 10.886 191.028 10.6766 190.211 10.6766C189.374 10.6766 188.641 10.886 188.013 11.3047C187.385 11.7026 186.903 12.2469 186.568 12.9379C186.254 13.6079 186.097 14.3616 186.097 15.1991H193.477Z"/>
</mask>
<path d="M5.56531 25.0607C5.18844 25.0607 5 24.8723 5 24.4954V8.94926C5 8.59332 5.14656 8.41535 5.43969 8.41535H8.54892C8.84205 8.41535 8.98861 8.57238 8.98861 8.88645V10.5196C8.98861 10.6452 9.02002 10.729 9.08283 10.7708C9.14564 10.7918 9.22939 10.7499 9.33408 10.6452C9.92033 10.1218 10.4856 9.67161 11.03 9.29473C11.5953 8.91786 12.1711 8.62473 12.7574 8.41535C13.3646 8.18504 14.0032 8.06988 14.6732 8.06988C15.8457 8.06988 16.8088 8.34207 17.5625 8.88645C18.3163 9.43083 18.8397 10.1218 19.1329 10.9593C19.1747 11.043 19.2376 11.0744 19.3213 11.0535C19.4051 11.0326 19.4888 10.9802 19.5726 10.8965C20.1169 10.3521 20.6927 9.87052 21.2999 9.45176C21.9071 9.03301 22.5352 8.70848 23.1843 8.47817C23.8334 8.22692 24.4824 8.10129 25.1315 8.10129C26.6181 8.10129 27.7906 8.55145 28.649 9.45176C29.5074 10.3311 29.9367 11.5351 29.9367 13.0635V24.4012C29.9367 24.8409 29.7168 25.0607 29.2771 25.0607H26.3877C26.1993 25.0607 26.0632 25.0189 25.9795 24.9351C25.8957 24.8514 25.8538 24.7048 25.8538 24.4954V13.6916C25.8538 12.8751 25.6445 12.2469 25.2257 11.8072C24.8279 11.3466 24.2207 11.1163 23.4041 11.1163C22.9226 11.1163 22.4619 11.2105 22.0223 11.399C21.5826 11.5665 21.1848 11.7863 20.8288 12.0585C20.4729 12.3307 20.1588 12.6029 19.8866 12.8751C19.7401 13.0216 19.6354 13.1682 19.5726 13.3147C19.5307 13.4404 19.5097 13.5974 19.5097 13.7858V24.4012C19.5097 24.8409 19.2899 25.0607 18.8502 25.0607H15.9608C15.7933 25.0607 15.6572 25.0189 15.5525 24.9351C15.4688 24.8514 15.4269 24.7048 15.4269 24.4954V13.6916C15.4269 12.8751 15.228 12.2469 14.8302 11.8072C14.4324 11.3466 13.8147 11.1163 12.9772 11.1163C12.2653 11.1163 11.6058 11.2943 10.9986 11.6502C10.4124 12.0061 9.77377 12.5401 9.08283 13.2519V24.4326C9.08283 24.8514 8.84205 25.0607 8.36048 25.0607H5.56531Z" fill="#1A181B"/>
<path d="M42.878 23.3334C42.1662 23.9615 41.3915 24.464 40.554 24.8409C39.7165 25.1968 38.7638 25.3748 37.696 25.3748C36.0838 25.3748 34.8171 24.956 33.8958 24.1185C32.9955 23.2601 32.5454 22.1504 32.5454 20.7895C32.5454 19.6379 32.8908 18.6434 33.5818 17.8059C34.2727 16.9474 35.2777 16.2774 36.5968 15.7959C37.9158 15.3143 39.4966 15.0316 41.3391 14.9479L42.9095 14.8537C43.0351 14.8327 43.1502 14.7908 43.2549 14.728C43.3596 14.6652 43.412 14.5501 43.412 14.3826V13.6602C43.412 12.739 43.1398 12.0271 42.5954 11.5246C42.051 11.0011 41.2973 10.7394 40.3341 10.7394C39.6013 10.7394 38.9104 10.9069 38.2613 11.2419C37.6332 11.556 37.0888 12.0794 36.6282 12.8122C36.5654 12.9379 36.4921 13.0216 36.4083 13.0635C36.3455 13.1054 36.2199 13.1054 36.0315 13.0635L33.3933 12.404C33.2886 12.3621 33.2049 12.2993 33.1421 12.2155C33.1002 12.1318 33.1421 11.9643 33.2677 11.713C33.833 10.5196 34.7229 9.61926 35.9372 9.01207C37.1726 8.40488 38.701 8.10129 40.5226 8.10129C42.1348 8.10129 43.4329 8.32113 44.417 8.76082C45.422 9.20051 46.1548 9.81817 46.6154 10.6138C47.076 11.3885 47.3063 12.3097 47.3063 13.3776V24.4326C47.3063 24.6629 47.2645 24.8304 47.1807 24.9351C47.1179 25.0189 46.9818 25.0607 46.7724 25.0607H44.1029C43.9145 25.0607 43.7784 24.9874 43.6946 24.8409C43.6109 24.6943 43.5585 24.5164 43.5376 24.307L43.4748 23.3648C43.4329 23.0088 43.234 22.9984 42.878 23.3334ZM43.412 17.4604C43.412 17.0835 43.2549 16.9055 42.9409 16.9265L41.6532 17.0207C40.9832 17.0626 40.3341 17.1673 39.706 17.3348C39.0988 17.4813 38.5544 17.6907 38.0729 17.9629C37.6122 18.2141 37.2354 18.5387 36.9422 18.9365C36.6701 19.3134 36.534 19.7635 36.534 20.287C36.534 20.9988 36.7852 21.5642 37.2877 21.9829C37.8112 22.4017 38.5126 22.611 39.3919 22.611C39.9573 22.611 40.4807 22.5168 40.9623 22.3284C41.4438 22.1399 41.8626 21.8992 42.2185 21.606C42.5745 21.3129 42.8571 21.0093 43.0665 20.6952C43.2968 20.3602 43.412 20.0252 43.412 19.6902V17.4604Z" fill="#1A181B"/>
<path d="M51.7854 25.0607C51.5761 25.0607 51.4295 25.0189 51.3457 24.9351C51.262 24.8304 51.2201 24.6839 51.2201 24.4954V8.94926C51.2201 8.59332 51.3667 8.41535 51.6598 8.41535H54.7062C54.9994 8.41535 55.1459 8.57238 55.1459 8.88645V10.8022C55.1459 10.9279 55.1878 11.0116 55.2715 11.0535C55.3553 11.0744 55.4495 11.0221 55.5542 10.8965C56.0148 10.2893 56.5069 9.78677 57.0303 9.38895C57.5747 8.9702 58.1191 8.65613 58.6634 8.44676C59.2287 8.21645 59.7731 8.10129 60.2966 8.10129C61.0503 8.10129 61.4272 8.26879 61.4272 8.60379V11.6188C61.4272 11.9119 61.2911 12.0376 61.0189 11.9957C60.7048 11.9119 60.3698 11.8596 60.0139 11.8386C59.6789 11.7968 59.3648 11.7758 59.0717 11.7758C58.6739 11.7758 58.2447 11.8596 57.784 12.0271C57.3444 12.1946 56.9361 12.4354 56.5592 12.7494C56.1823 13.0426 55.8787 13.3671 55.6484 13.723C55.4181 14.079 55.3029 14.4454 55.3029 14.8223V24.4326C55.3029 24.8514 55.0622 25.0607 54.5806 25.0607H51.7854Z" fill="#1A181B"/>
<path d="M79.9297 24.4012C80.0344 24.5478 80.0553 24.6943 79.9925 24.8409C79.9297 24.9874 79.7831 25.0607 79.5528 25.0607H76.0981C75.9097 25.0607 75.7527 25.0189 75.627 24.9351C75.5223 24.8304 75.4281 24.6839 75.3444 24.4954L71.5756 17.4604C71.5128 17.3138 71.45 17.2301 71.3872 17.2091C71.3244 17.1882 71.2302 17.2405 71.1045 17.3662L68.4978 19.9415C68.414 20.0252 68.3408 20.1195 68.2779 20.2241C68.2361 20.3288 68.2151 20.4754 68.2151 20.6638V24.3698C68.2151 24.621 68.1628 24.799 68.0581 24.9037C67.9534 25.0084 67.765 25.0607 67.4928 25.0607H64.7604C64.5092 25.0607 64.3417 25.0189 64.2579 24.9351C64.1742 24.8304 64.1323 24.6839 64.1323 24.4954V2.29111C64.1323 1.93517 64.2893 1.7572 64.6034 1.7572H67.7755C68.0686 1.7572 68.2151 1.9247 68.2151 2.25971V15.733C68.2151 15.8587 68.2465 15.9424 68.3094 15.9843C68.3722 16.0262 68.4664 15.9738 68.592 15.8273L75.1245 8.85504C75.4177 8.56192 75.6794 8.41535 75.9097 8.41535H78.7677C79.0399 8.41535 79.1969 8.48863 79.2388 8.6352C79.3016 8.78176 79.2388 8.94926 79.0503 9.1377L74.4336 13.7858C74.3499 13.8905 74.2975 13.9952 74.2766 14.0999C74.2556 14.2046 74.2975 14.3616 74.4022 14.571L79.9297 24.4012Z" fill="#1A181B"/>
<path d="M84.9143 18.0257C84.9143 18.8841 85.1132 19.6588 85.511 20.3498C85.9088 21.0198 86.4532 21.5537 87.1441 21.9515C87.856 22.3284 88.6307 22.5168 89.4682 22.5168C90.3266 22.5168 91.1013 22.3388 91.7922 21.9829C92.5041 21.627 93.1741 21.0512 93.8023 20.2556C93.886 20.1509 93.9593 20.0985 94.0221 20.0985C94.0849 20.0776 94.1896 20.109 94.3362 20.1927L96.252 21.0407C96.5241 21.1663 96.5555 21.3548 96.3462 21.606C95.718 22.5273 95.0376 23.2706 94.3048 23.8359C93.5929 24.3803 92.7972 24.7781 91.9179 25.0293C91.0594 25.2596 90.0858 25.3748 88.9971 25.3748C87.4058 25.3748 85.9821 25.0189 84.7258 24.307C83.4696 23.5951 82.475 22.611 81.7422 21.3548C81.0303 20.0776 80.6744 18.612 80.6744 16.9579C80.6744 15.1363 81.0408 13.566 81.7736 12.2469C82.5274 10.9279 83.5324 9.91239 84.7886 9.20051C86.0449 8.4677 87.4268 8.10129 88.9343 8.10129C90.5255 8.10129 91.9074 8.44676 93.0799 9.1377C94.2733 9.82864 95.2051 10.8232 95.8751 12.1213C96.5451 13.3985 96.8801 14.9583 96.8801 16.8009C96.8801 17.0102 96.8591 17.1777 96.8173 17.3034C96.7963 17.429 96.6498 17.5023 96.3776 17.5232H85.2597C85.1341 17.5232 85.0399 17.5651 84.9771 17.6488C84.9352 17.7326 84.9143 17.8582 84.9143 18.0257ZM92.3576 15.1991C92.5669 15.1991 92.703 15.1782 92.7658 15.1363C92.8496 15.0735 92.8915 14.9479 92.8915 14.7594C92.8915 14.1104 92.7449 13.4718 92.4518 12.8437C92.1587 12.2155 91.7294 11.7026 91.1641 11.3047C90.5988 10.886 89.9079 10.6766 89.0913 10.6766C88.2538 10.6766 87.521 10.886 86.8928 11.3047C86.2647 11.7026 85.7832 12.2469 85.4482 12.9379C85.1341 13.6079 84.9771 14.3616 84.9771 15.1991H92.3576Z" fill="#1A181B"/>
<path d="M105.557 11.2733C105.348 11.2733 105.243 11.3885 105.243 11.6188V20.0043C105.243 20.8209 105.411 21.3862 105.746 21.7003C106.081 22.0143 106.604 22.1713 107.316 22.1713H109.169C109.295 22.1713 109.399 22.2132 109.483 22.297C109.567 22.3807 109.609 22.4854 109.609 22.611L109.577 24.2442C109.577 24.5792 109.378 24.7885 108.981 24.8723C108.667 24.9142 108.3 24.956 107.881 24.9979C107.463 25.0189 107.044 25.0398 106.625 25.0607C106.227 25.0607 105.861 25.0607 105.526 25.0607C104.123 25.0607 103.045 24.7362 102.291 24.0871C101.537 23.4171 101.16 22.4121 101.16 21.0721V11.6816C101.16 11.4094 101.035 11.2733 100.784 11.2733H98.6793C98.3443 11.2733 98.1768 11.1163 98.1768 10.8022V8.82364C98.1768 8.55145 98.3338 8.41535 98.6479 8.41535H100.972C101.16 8.41535 101.255 8.31067 101.255 8.10129L101.663 3.26471C101.684 2.92971 101.83 2.76221 102.103 2.76221H104.898C105.191 2.76221 105.337 2.94018 105.337 3.29612V8.10129C105.337 8.28973 105.432 8.38395 105.62 8.38395H109.169C109.483 8.38395 109.64 8.53051 109.64 8.82364V10.8022C109.64 11.1163 109.462 11.2733 109.106 11.2733H105.557Z" fill="#1A181B"/>
<path d="M122.736 12.5296C122.339 12.0061 121.815 11.5665 121.166 11.2105C120.517 10.8546 119.721 10.6766 118.779 10.6766C117.879 10.6766 117.125 10.8546 116.518 11.2105C115.911 11.5665 115.607 12.069 115.607 12.718C115.607 13.0321 115.733 13.3357 115.984 13.6288C116.235 13.9219 116.79 14.1837 117.649 14.414L121.386 15.419C123.019 15.8168 124.181 16.4449 124.872 17.3034C125.584 18.1409 125.94 19.0935 125.94 20.1613C125.94 21.2501 125.626 22.1818 124.998 22.9565C124.39 23.7312 123.532 24.3279 122.422 24.7467C121.334 25.1654 120.088 25.3748 118.685 25.3748C116.884 25.3748 115.345 25.0503 114.068 24.4012C112.791 23.7312 111.891 22.9042 111.367 21.9201C111.304 21.7945 111.273 21.6793 111.273 21.5746C111.273 21.449 111.325 21.3443 111.43 21.2606L113.283 20.3184C113.451 20.2137 113.587 20.1718 113.691 20.1927C113.796 20.2137 113.88 20.266 113.943 20.3498C114.257 20.7895 114.613 21.1873 115.01 21.5432C115.429 21.8992 115.932 22.1818 116.518 22.3912C117.125 22.6006 117.858 22.6948 118.716 22.6738C119.365 22.6738 119.952 22.5901 120.475 22.4226C121.019 22.2551 121.449 22.0248 121.763 21.7317C122.077 21.4176 122.234 21.0407 122.234 20.601C122.234 20.1823 122.056 19.8159 121.7 19.5018C121.344 19.1877 120.705 18.9156 119.784 18.6852L116.581 17.9315C114.989 17.5546 113.817 16.9893 113.063 16.2355C112.33 15.4818 111.964 14.5396 111.964 13.409C111.964 12.3621 112.236 11.4408 112.781 10.6452C113.346 9.84958 114.141 9.23192 115.167 8.79223C116.193 8.3316 117.408 8.10129 118.811 8.10129C120.36 8.10129 121.7 8.38395 122.831 8.94926C123.961 9.51458 124.788 10.216 125.312 11.0535C125.395 11.1582 125.448 11.2733 125.469 11.399C125.511 11.5246 125.458 11.6293 125.312 11.713L123.364 12.6866C123.239 12.7494 123.124 12.7704 123.019 12.7494C122.914 12.7076 122.82 12.6343 122.736 12.5296Z" fill="#1A181B"/>
<path d="M132.517 8.41535C132.915 8.41535 133.113 8.60379 133.113 8.98067V10.0485C133.113 10.195 133.155 10.2788 133.239 10.2997C133.323 10.2997 133.417 10.2474 133.522 10.1427C133.836 9.84958 134.192 9.54598 134.59 9.23192C135.008 8.91785 135.511 8.65613 136.097 8.44676C136.683 8.21645 137.395 8.10129 138.233 8.10129C139.489 8.10129 140.609 8.41535 141.593 9.04348C142.577 9.65067 143.362 10.5824 143.949 11.8386C144.535 13.074 144.828 14.6443 144.828 16.5496C144.828 18.5177 144.535 20.1613 143.949 21.4804C143.362 22.7785 142.546 23.7521 141.499 24.4012C140.473 25.0503 139.29 25.3748 137.95 25.3748C137.092 25.3748 136.306 25.2387 135.595 24.9665C134.883 24.6943 134.244 24.2965 133.679 23.7731C133.469 23.5846 133.323 23.5009 133.239 23.5218C133.155 23.5428 133.113 23.6893 133.113 23.9615V29.7403C133.113 30.0753 132.967 30.2428 132.674 30.2428H129.47C129.177 30.2428 129.031 30.0753 129.031 29.7403V9.04348C129.031 8.81317 129.073 8.65614 129.156 8.57238C129.24 8.4677 129.408 8.41535 129.659 8.41535H132.517ZM133.113 20.9779C133.595 21.5013 134.108 21.9201 134.652 22.2342C135.218 22.5482 135.846 22.7053 136.537 22.7053C137.374 22.7053 138.097 22.4959 138.704 22.0771C139.332 21.6374 139.813 20.9674 140.148 20.0671C140.504 19.1459 140.682 17.9629 140.682 16.5182C140.682 15.0944 140.504 13.9638 140.148 13.1263C139.813 12.2888 139.332 11.6921 138.704 11.3361C138.097 10.9593 137.416 10.7708 136.662 10.7708C135.971 10.7708 135.354 10.9174 134.809 11.2105C134.286 11.4827 133.867 11.8386 133.553 12.2783C133.26 12.718 133.113 13.1787 133.113 13.6602V20.9779Z" fill="#1A181B"/>
<path d="M157.217 23.3334C156.505 23.9615 155.73 24.464 154.893 24.8409C154.055 25.1968 153.103 25.3748 152.035 25.3748C150.423 25.3748 149.156 24.956 148.235 24.1185C147.334 23.2601 146.884 22.1504 146.884 20.7895C146.884 19.6379 147.23 18.6434 147.921 17.8059C148.612 16.9474 149.617 16.2774 150.936 15.7959C152.255 15.3143 153.835 15.0316 155.678 14.9479L157.248 14.8537C157.374 14.8327 157.489 14.7908 157.594 14.728C157.698 14.6652 157.751 14.5501 157.751 14.3826V13.6602C157.751 12.739 157.479 12.0271 156.934 11.5246C156.39 11.0011 155.636 10.7394 154.673 10.7394C153.94 10.7394 153.249 10.9069 152.6 11.2419C151.972 11.556 151.428 12.0794 150.967 12.8122C150.904 12.9379 150.831 13.0216 150.747 13.0635C150.684 13.1054 150.559 13.1054 150.37 13.0635L147.732 12.404C147.627 12.3621 147.544 12.2993 147.481 12.2155C147.439 12.1318 147.481 11.9643 147.607 11.713C148.172 10.5196 149.062 9.61926 150.276 9.01207C151.511 8.40488 153.04 8.10129 154.861 8.10129C156.474 8.10129 157.772 8.32113 158.756 8.76082C159.761 9.20051 160.494 9.81817 160.954 10.6138C161.415 11.3885 161.645 12.3097 161.645 13.3776V24.4326C161.645 24.6629 161.603 24.8304 161.52 24.9351C161.457 25.0189 161.321 25.0607 161.111 25.0607H158.442C158.253 25.0607 158.117 24.9874 158.033 24.8409C157.95 24.6943 157.897 24.5164 157.876 24.307L157.814 23.3648C157.772 23.0088 157.573 22.9984 157.217 23.3334ZM157.751 17.4604C157.751 17.0835 157.594 16.9055 157.28 16.9265L155.992 17.0207C155.322 17.0626 154.673 17.1673 154.045 17.3348C153.438 17.4813 152.893 17.6907 152.412 17.9629C151.951 18.2141 151.574 18.5387 151.281 18.9365C151.009 19.3134 150.873 19.7635 150.873 20.287C150.873 20.9988 151.124 21.5642 151.627 21.9829C152.15 22.4017 152.851 22.611 153.731 22.611C154.296 22.611 154.82 22.5168 155.301 22.3284C155.783 22.1399 156.201 21.8992 156.557 21.606C156.913 21.3129 157.196 21.0093 157.405 20.6952C157.636 20.3602 157.751 20.0252 157.751 19.6902V17.4604Z" fill="#1A181B"/>
<path d="M172.908 8.10129C174.164 8.10129 175.253 8.32113 176.174 8.76082C177.096 9.17958 177.849 9.73442 178.436 10.4254C179.043 11.0954 179.503 11.8072 179.817 12.561C179.943 12.9379 179.838 13.1368 179.503 13.1577L176.74 13.5032C176.53 13.5451 176.384 13.4508 176.3 13.2205C176.028 12.7599 175.745 12.3516 175.452 11.9957C175.159 11.6397 174.824 11.3571 174.447 11.1477C174.07 10.9383 173.609 10.8336 173.065 10.8336C172.228 10.8336 171.484 11.064 170.835 11.5246C170.207 11.9643 169.715 12.6238 169.359 13.5032C169.024 14.3826 168.857 15.4609 168.857 16.738C168.857 18.0362 169.035 19.1249 169.391 20.0043C169.767 20.8837 170.28 21.5537 170.929 22.0143C171.578 22.454 172.353 22.6738 173.254 22.6738C174.196 22.6738 174.97 22.4331 175.578 21.9515C176.185 21.449 176.75 20.7581 177.274 19.8787C177.336 19.7949 177.399 19.7426 177.462 19.7216C177.525 19.7007 177.629 19.7112 177.776 19.7531L179.755 20.287C179.964 20.3498 180.027 20.5277 179.943 20.8209C179.734 21.3024 179.43 21.8154 179.032 22.3598C178.655 22.9042 178.184 23.4067 177.619 23.8673C177.054 24.307 176.373 24.6734 175.578 24.9665C174.803 25.2387 173.913 25.3748 172.908 25.3748C171.317 25.3748 169.903 25.0189 168.668 24.307C167.433 23.5742 166.459 22.5692 165.747 21.292C165.056 19.9938 164.711 18.4968 164.711 16.8009C164.711 15.084 165.067 13.5765 165.779 12.2783C166.491 10.9593 167.464 9.93333 168.7 9.20051C169.935 8.4677 171.338 8.10129 172.908 8.10129Z" fill="#1A181B"/>
<path d="M186.034 18.0257C186.034 18.8841 186.233 19.6588 186.631 20.3498C187.029 21.0198 187.573 21.5537 188.264 21.9515C188.976 22.3284 189.751 22.5168 190.588 22.5168C191.447 22.5168 192.221 22.3388 192.912 21.9829C193.624 21.627 194.294 21.0512 194.922 20.2556C195.006 20.1509 195.079 20.0985 195.142 20.0985C195.205 20.0776 195.31 20.109 195.456 20.1927L197.372 21.0407C197.644 21.1663 197.675 21.3548 197.466 21.606C196.838 22.5273 196.157 23.2706 195.425 23.8359C194.713 24.3803 193.917 24.7781 193.038 25.0293C192.179 25.2596 191.206 25.3748 190.117 25.3748C188.526 25.3748 187.102 25.0189 185.846 24.307C184.589 23.5951 183.595 22.611 182.862 21.3548C182.15 20.0776 181.794 18.612 181.794 16.9579C181.794 15.1363 182.161 13.566 182.894 12.2469C183.647 10.9279 184.652 9.91239 185.909 9.20051C187.165 8.4677 188.547 8.10129 190.054 8.10129C191.645 8.10129 193.027 8.44676 194.2 9.1377C195.393 9.82864 196.325 10.8232 196.995 12.1213C197.665 13.3985 198 14.9583 198 16.8009C198 17.0102 197.979 17.1777 197.937 17.3034C197.916 17.429 197.77 17.5023 197.498 17.5232H186.38C186.254 17.5232 186.16 17.5651 186.097 17.6488C186.055 17.7326 186.034 17.8582 186.034 18.0257ZM193.477 15.1991C193.687 15.1991 193.823 15.1782 193.886 15.1363C193.97 15.0735 194.011 14.9479 194.011 14.7594C194.011 14.1104 193.865 13.4718 193.572 12.8437C193.279 12.2155 192.849 11.7026 192.284 11.3047C191.719 10.886 191.028 10.6766 190.211 10.6766C189.374 10.6766 188.641 10.886 188.013 11.3047C187.385 11.7026 186.903 12.2469 186.568 12.9379C186.254 13.6079 186.097 14.3616 186.097 15.1991H193.477Z" fill="#1A181B"/>
<path d="M5.56531 25.0607C5.18844 25.0607 5 24.8723 5 24.4954V8.94926C5 8.59332 5.14656 8.41535 5.43969 8.41535H8.54892C8.84205 8.41535 8.98861 8.57238 8.98861 8.88645V10.5196C8.98861 10.6452 9.02002 10.729 9.08283 10.7708C9.14564 10.7918 9.22939 10.7499 9.33408 10.6452C9.92033 10.1218 10.4856 9.67161 11.03 9.29473C11.5953 8.91786 12.1711 8.62473 12.7574 8.41535C13.3646 8.18504 14.0032 8.06988 14.6732 8.06988C15.8457 8.06988 16.8088 8.34207 17.5625 8.88645C18.3163 9.43083 18.8397 10.1218 19.1329 10.9593C19.1747 11.043 19.2376 11.0744 19.3213 11.0535C19.4051 11.0326 19.4888 10.9802 19.5726 10.8965C20.1169 10.3521 20.6927 9.87052 21.2999 9.45176C21.9071 9.03301 22.5352 8.70848 23.1843 8.47817C23.8334 8.22692 24.4824 8.10129 25.1315 8.10129C26.6181 8.10129 27.7906 8.55145 28.649 9.45176C29.5074 10.3311 29.9367 11.5351 29.9367 13.0635V24.4012C29.9367 24.8409 29.7168 25.0607 29.2771 25.0607H26.3877C26.1993 25.0607 26.0632 25.0189 25.9795 24.9351C25.8957 24.8514 25.8538 24.7048 25.8538 24.4954V13.6916C25.8538 12.8751 25.6445 12.2469 25.2257 11.8072C24.8279 11.3466 24.2207 11.1163 23.4041 11.1163C22.9226 11.1163 22.4619 11.2105 22.0223 11.399C21.5826 11.5665 21.1848 11.7863 20.8288 12.0585C20.4729 12.3307 20.1588 12.6029 19.8866 12.8751C19.7401 13.0216 19.6354 13.1682 19.5726 13.3147C19.5307 13.4404 19.5097 13.5974 19.5097 13.7858V24.4012C19.5097 24.8409 19.2899 25.0607 18.8502 25.0607H15.9608C15.7933 25.0607 15.6572 25.0189 15.5525 24.9351C15.4688 24.8514 15.4269 24.7048 15.4269 24.4954V13.6916C15.4269 12.8751 15.228 12.2469 14.8302 11.8072C14.4324 11.3466 13.8147 11.1163 12.9772 11.1163C12.2653 11.1163 11.6058 11.2943 10.9986 11.6502C10.4124 12.0061 9.77377 12.5401 9.08283 13.2519V24.4326C9.08283 24.8514 8.84205 25.0607 8.36048 25.0607H5.56531Z" stroke="black" stroke-width="2" mask="url(#path-1-outside-1_669_1434)"/>
<path d="M42.878 23.3334C42.1662 23.9615 41.3915 24.464 40.554 24.8409C39.7165 25.1968 38.7638 25.3748 37.696 25.3748C36.0838 25.3748 34.8171 24.956 33.8958 24.1185C32.9955 23.2601 32.5454 22.1504 32.5454 20.7895C32.5454 19.6379 32.8908 18.6434 33.5818 17.8059C34.2727 16.9474 35.2777 16.2774 36.5968 15.7959C37.9158 15.3143 39.4966 15.0316 41.3391 14.9479L42.9095 14.8537C43.0351 14.8327 43.1502 14.7908 43.2549 14.728C43.3596 14.6652 43.412 14.5501 43.412 14.3826V13.6602C43.412 12.739 43.1398 12.0271 42.5954 11.5246C42.051 11.0011 41.2973 10.7394 40.3341 10.7394C39.6013 10.7394 38.9104 10.9069 38.2613 11.2419C37.6332 11.556 37.0888 12.0794 36.6282 12.8122C36.5654 12.9379 36.4921 13.0216 36.4083 13.0635C36.3455 13.1054 36.2199 13.1054 36.0315 13.0635L33.3933 12.404C33.2886 12.3621 33.2049 12.2993 33.1421 12.2155C33.1002 12.1318 33.1421 11.9643 33.2677 11.713C33.833 10.5196 34.7229 9.61926 35.9372 9.01207C37.1726 8.40488 38.701 8.10129 40.5226 8.10129C42.1348 8.10129 43.4329 8.32113 44.417 8.76082C45.422 9.20051 46.1548 9.81817 46.6154 10.6138C47.076 11.3885 47.3063 12.3097 47.3063 13.3776V24.4326C47.3063 24.6629 47.2645 24.8304 47.1807 24.9351C47.1179 25.0189 46.9818 25.0607 46.7724 25.0607H44.1029C43.9145 25.0607 43.7784 24.9874 43.6946 24.8409C43.6109 24.6943 43.5585 24.5164 43.5376 24.307L43.4748 23.3648C43.4329 23.0088 43.234 22.9984 42.878 23.3334ZM43.412 17.4604C43.412 17.0835 43.2549 16.9055 42.9409 16.9265L41.6532 17.0207C40.9832 17.0626 40.3341 17.1673 39.706 17.3348C39.0988 17.4813 38.5544 17.6907 38.0729 17.9629C37.6122 18.2141 37.2354 18.5387 36.9422 18.9365C36.6701 19.3134 36.534 19.7635 36.534 20.287C36.534 20.9988 36.7852 21.5642 37.2877 21.9829C37.8112 22.4017 38.5126 22.611 39.3919 22.611C39.9573 22.611 40.4807 22.5168 40.9623 22.3284C41.4438 22.1399 41.8626 21.8992 42.2185 21.606C42.5745 21.3129 42.8571 21.0093 43.0665 20.6952C43.2968 20.3602 43.412 20.0252 43.412 19.6902V17.4604Z" stroke="black" stroke-width="2" mask="url(#path-1-outside-1_669_1434)"/>
<path d="M51.7854 25.0607C51.5761 25.0607 51.4295 25.0189 51.3457 24.9351C51.262 24.8304 51.2201 24.6839 51.2201 24.4954V8.94926C51.2201 8.59332 51.3667 8.41535 51.6598 8.41535H54.7062C54.9994 8.41535 55.1459 8.57238 55.1459 8.88645V10.8022C55.1459 10.9279 55.1878 11.0116 55.2715 11.0535C55.3553 11.0744 55.4495 11.0221 55.5542 10.8965C56.0148 10.2893 56.5069 9.78677 57.0303 9.38895C57.5747 8.9702 58.1191 8.65613 58.6634 8.44676C59.2287 8.21645 59.7731 8.10129 60.2966 8.10129C61.0503 8.10129 61.4272 8.26879 61.4272 8.60379V11.6188C61.4272 11.9119 61.2911 12.0376 61.0189 11.9957C60.7048 11.9119 60.3698 11.8596 60.0139 11.8386C59.6789 11.7968 59.3648 11.7758 59.0717 11.7758C58.6739 11.7758 58.2447 11.8596 57.784 12.0271C57.3444 12.1946 56.9361 12.4354 56.5592 12.7494C56.1823 13.0426 55.8787 13.3671 55.6484 13.723C55.4181 14.079 55.3029 14.4454 55.3029 14.8223V24.4326C55.3029 24.8514 55.0622 25.0607 54.5806 25.0607H51.7854Z" stroke="black" stroke-width="2" mask="url(#path-1-outside-1_669_1434)"/>
<path d="M79.9297 24.4012C80.0344 24.5478 80.0553 24.6943 79.9925 24.8409C79.9297 24.9874 79.7831 25.0607 79.5528 25.0607H76.0981C75.9097 25.0607 75.7527 25.0189 75.627 24.9351C75.5223 24.8304 75.4281 24.6839 75.3444 24.4954L71.5756 17.4604C71.5128 17.3138 71.45 17.2301 71.3872 17.2091C71.3244 17.1882 71.2302 17.2405 71.1045 17.3662L68.4978 19.9415C68.414 20.0252 68.3408 20.1195 68.2779 20.2241C68.2361 20.3288 68.2151 20.4754 68.2151 20.6638V24.3698C68.2151 24.621 68.1628 24.799 68.0581 24.9037C67.9534 25.0084 67.765 25.0607 67.4928 25.0607H64.7604C64.5092 25.0607 64.3417 25.0189 64.2579 24.9351C64.1742 24.8304 64.1323 24.6839 64.1323 24.4954V2.29111C64.1323 1.93517 64.2893 1.7572 64.6034 1.7572H67.7755C68.0686 1.7572 68.2151 1.9247 68.2151 2.25971V15.733C68.2151 15.8587 68.2465 15.9424 68.3094 15.9843C68.3722 16.0262 68.4664 15.9738 68.592 15.8273L75.1245 8.85504C75.4177 8.56192 75.6794 8.41535 75.9097 8.41535H78.7677C79.0399 8.41535 79.1969 8.48863 79.2388 8.6352C79.3016 8.78176 79.2388 8.94926 79.0503 9.1377L74.4336 13.7858C74.3499 13.8905 74.2975 13.9952 74.2766 14.0999C74.2556 14.2046 74.2975 14.3616 74.4022 14.571L79.9297 24.4012Z" stroke="black" stroke-width="2" mask="url(#path-1-outside-1_669_1434)"/>
<path d="M84.9143 18.0257C84.9143 18.8841 85.1132 19.6588 85.511 20.3498C85.9088 21.0198 86.4532 21.5537 87.1441 21.9515C87.856 22.3284 88.6307 22.5168 89.4682 22.5168C90.3266 22.5168 91.1013 22.3388 91.7922 21.9829C92.5041 21.627 93.1741 21.0512 93.8023 20.2556C93.886 20.1509 93.9593 20.0985 94.0221 20.0985C94.0849 20.0776 94.1896 20.109 94.3362 20.1927L96.252 21.0407C96.5241 21.1663 96.5555 21.3548 96.3462 21.606C95.718 22.5273 95.0376 23.2706 94.3048 23.8359C93.5929 24.3803 92.7972 24.7781 91.9179 25.0293C91.0594 25.2596 90.0858 25.3748 88.9971 25.3748C87.4058 25.3748 85.9821 25.0189 84.7258 24.307C83.4696 23.5951 82.475 22.611 81.7422 21.3548C81.0303 20.0776 80.6744 18.612 80.6744 16.9579C80.6744 15.1363 81.0408 13.566 81.7736 12.2469C82.5274 10.9279 83.5324 9.91239 84.7886 9.20051C86.0449 8.4677 87.4268 8.10129 88.9343 8.10129C90.5255 8.10129 91.9074 8.44676 93.0799 9.1377C94.2733 9.82864 95.2051 10.8232 95.8751 12.1213C96.5451 13.3985 96.8801 14.9583 96.8801 16.8009C96.8801 17.0102 96.8591 17.1777 96.8173 17.3034C96.7963 17.429 96.6498 17.5023 96.3776 17.5232H85.2597C85.1341 17.5232 85.0399 17.5651 84.9771 17.6488C84.9352 17.7326 84.9143 17.8582 84.9143 18.0257ZM92.3576 15.1991C92.5669 15.1991 92.703 15.1782 92.7658 15.1363C92.8496 15.0735 92.8915 14.9479 92.8915 14.7594C92.8915 14.1104 92.7449 13.4718 92.4518 12.8437C92.1587 12.2155 91.7294 11.7026 91.1641 11.3047C90.5988 10.886 89.9079 10.6766 89.0913 10.6766C88.2538 10.6766 87.521 10.886 86.8928 11.3047C86.2647 11.7026 85.7832 12.2469 85.4482 12.9379C85.1341 13.6079 84.9771 14.3616 84.9771 15.1991H92.3576Z" stroke="black" stroke-width="2" mask="url(#path-1-outside-1_669_1434)"/>
<path d="M105.557 11.2733C105.348 11.2733 105.243 11.3885 105.243 11.6188V20.0043C105.243 20.8209 105.411 21.3862 105.746 21.7003C106.081 22.0143 106.604 22.1713 107.316 22.1713H109.169C109.295 22.1713 109.399 22.2132 109.483 22.297C109.567 22.3807 109.609 22.4854 109.609 22.611L109.577 24.2442C109.577 24.5792 109.378 24.7885 108.981 24.8723C108.667 24.9142 108.3 24.956 107.881 24.9979C107.463 25.0189 107.044 25.0398 106.625 25.0607C106.227 25.0607 105.861 25.0607 105.526 25.0607C104.123 25.0607 103.045 24.7362 102.291 24.0871C101.537 23.4171 101.16 22.4121 101.16 21.0721V11.6816C101.16 11.4094 101.035 11.2733 100.784 11.2733H98.6793C98.3443 11.2733 98.1768 11.1163 98.1768 10.8022V8.82364C98.1768 8.55145 98.3338 8.41535 98.6479 8.41535H100.972C101.16 8.41535 101.255 8.31067 101.255 8.10129L101.663 3.26471C101.684 2.92971 101.83 2.76221 102.103 2.76221H104.898C105.191 2.76221 105.337 2.94018 105.337 3.29612V8.10129C105.337 8.28973 105.432 8.38395 105.62 8.38395H109.169C109.483 8.38395 109.64 8.53051 109.64 8.82364V10.8022C109.64 11.1163 109.462 11.2733 109.106 11.2733H105.557Z" stroke="black" stroke-width="2" mask="url(#path-1-outside-1_669_1434)"/>
<path d="M122.736 12.5296C122.339 12.0061 121.815 11.5665 121.166 11.2105C120.517 10.8546 119.721 10.6766 118.779 10.6766C117.879 10.6766 117.125 10.8546 116.518 11.2105C115.911 11.5665 115.607 12.069 115.607 12.718C115.607 13.0321 115.733 13.3357 115.984 13.6288C116.235 13.9219 116.79 14.1837 117.649 14.414L121.386 15.419C123.019 15.8168 124.181 16.4449 124.872 17.3034C125.584 18.1409 125.94 19.0935 125.94 20.1613C125.94 21.2501 125.626 22.1818 124.998 22.9565C124.39 23.7312 123.532 24.3279 122.422 24.7467C121.334 25.1654 120.088 25.3748 118.685 25.3748C116.884 25.3748 115.345 25.0503 114.068 24.4012C112.791 23.7312 111.891 22.9042 111.367 21.9201C111.304 21.7945 111.273 21.6793 111.273 21.5746C111.273 21.449 111.325 21.3443 111.43 21.2606L113.283 20.3184C113.451 20.2137 113.587 20.1718 113.691 20.1927C113.796 20.2137 113.88 20.266 113.943 20.3498C114.257 20.7895 114.613 21.1873 115.01 21.5432C115.429 21.8992 115.932 22.1818 116.518 22.3912C117.125 22.6006 117.858 22.6948 118.716 22.6738C119.365 22.6738 119.952 22.5901 120.475 22.4226C121.019 22.2551 121.449 22.0248 121.763 21.7317C122.077 21.4176 122.234 21.0407 122.234 20.601C122.234 20.1823 122.056 19.8159 121.7 19.5018C121.344 19.1877 120.705 18.9156 119.784 18.6852L116.581 17.9315C114.989 17.5546 113.817 16.9893 113.063 16.2355C112.33 15.4818 111.964 14.5396 111.964 13.409C111.964 12.3621 112.236 11.4408 112.781 10.6452C113.346 9.84958 114.141 9.23192 115.167 8.79223C116.193 8.3316 117.408 8.10129 118.811 8.10129C120.36 8.10129 121.7 8.38395 122.831 8.94926C123.961 9.51458 124.788 10.216 125.312 11.0535C125.395 11.1582 125.448 11.2733 125.469 11.399C125.511 11.5246 125.458 11.6293 125.312 11.713L123.364 12.6866C123.239 12.7494 123.124 12.7704 123.019 12.7494C122.914 12.7076 122.82 12.6343 122.736 12.5296Z" stroke="black" stroke-width="2" mask="url(#path-1-outside-1_669_1434)"/>
<path d="M132.517 8.41535C132.915 8.41535 133.113 8.60379 133.113 8.98067V10.0485C133.113 10.195 133.155 10.2788 133.239 10.2997C133.323 10.2997 133.417 10.2474 133.522 10.1427C133.836 9.84958 134.192 9.54598 134.59 9.23192C135.008 8.91785 135.511 8.65613 136.097 8.44676C136.683 8.21645 137.395 8.10129 138.233 8.10129C139.489 8.10129 140.609 8.41535 141.593 9.04348C142.577 9.65067 143.362 10.5824 143.949 11.8386C144.535 13.074 144.828 14.6443 144.828 16.5496C144.828 18.5177 144.535 20.1613 143.949 21.4804C143.362 22.7785 142.546 23.7521 141.499 24.4012C140.473 25.0503 139.29 25.3748 137.95 25.3748C137.092 25.3748 136.306 25.2387 135.595 24.9665C134.883 24.6943 134.244 24.2965 133.679 23.7731C133.469 23.5846 133.323 23.5009 133.239 23.5218C133.155 23.5428 133.113 23.6893 133.113 23.9615V29.7403C133.113 30.0753 132.967 30.2428 132.674 30.2428H129.47C129.177 30.2428 129.031 30.0753 129.031 29.7403V9.04348C129.031 8.81317 129.073 8.65614 129.156 8.57238C129.24 8.4677 129.408 8.41535 129.659 8.41535H132.517ZM133.113 20.9779C133.595 21.5013 134.108 21.9201 134.652 22.2342C135.218 22.5482 135.846 22.7053 136.537 22.7053C137.374 22.7053 138.097 22.4959 138.704 22.0771C139.332 21.6374 139.813 20.9674 140.148 20.0671C140.504 19.1459 140.682 17.9629 140.682 16.5182C140.682 15.0944 140.504 13.9638 140.148 13.1263C139.813 12.2888 139.332 11.6921 138.704 11.3361C138.097 10.9593 137.416 10.7708 136.662 10.7708C135.971 10.7708 135.354 10.9174 134.809 11.2105C134.286 11.4827 133.867 11.8386 133.553 12.2783C133.26 12.718 133.113 13.1787 133.113 13.6602V20.9779Z" stroke="black" stroke-width="2" mask="url(#path-1-outside-1_669_1434)"/>
<path d="M157.217 23.3334C156.505 23.9615 155.73 24.464 154.893 24.8409C154.055 25.1968 153.103 25.3748 152.035 25.3748C150.423 25.3748 149.156 24.956 148.235 24.1185C147.334 23.2601 146.884 22.1504 146.884 20.7895C146.884 19.6379 147.23 18.6434 147.921 17.8059C148.612 16.9474 149.617 16.2774 150.936 15.7959C152.255 15.3143 153.835 15.0316 155.678 14.9479L157.248 14.8537C157.374 14.8327 157.489 14.7908 157.594 14.728C157.698 14.6652 157.751 14.5501 157.751 14.3826V13.6602C157.751 12.739 157.479 12.0271 156.934 11.5246C156.39 11.0011 155.636 10.7394 154.673 10.7394C153.94 10.7394 153.249 10.9069 152.6 11.2419C151.972 11.556 151.428 12.0794 150.967 12.8122C150.904 12.9379 150.831 13.0216 150.747 13.0635C150.684 13.1054 150.559 13.1054 150.37 13.0635L147.732 12.404C147.627 12.3621 147.544 12.2993 147.481 12.2155C147.439 12.1318 147.481 11.9643 147.607 11.713C148.172 10.5196 149.062 9.61926 150.276 9.01207C151.511 8.40488 153.04 8.10129 154.861 8.10129C156.474 8.10129 157.772 8.32113 158.756 8.76082C159.761 9.20051 160.494 9.81817 160.954 10.6138C161.415 11.3885 161.645 12.3097 161.645 13.3776V24.4326C161.645 24.6629 161.603 24.8304 161.52 24.9351C161.457 25.0189 161.321 25.0607 161.111 25.0607H158.442C158.253 25.0607 158.117 24.9874 158.033 24.8409C157.95 24.6943 157.897 24.5164 157.876 24.307L157.814 23.3648C157.772 23.0088 157.573 22.9984 157.217 23.3334ZM157.751 17.4604C157.751 17.0835 157.594 16.9055 157.28 16.9265L155.992 17.0207C155.322 17.0626 154.673 17.1673 154.045 17.3348C153.438 17.4813 152.893 17.6907 152.412 17.9629C151.951 18.2141 151.574 18.5387 151.281 18.9365C151.009 19.3134 150.873 19.7635 150.873 20.287C150.873 20.9988 151.124 21.5642 151.627 21.9829C152.15 22.4017 152.851 22.611 153.731 22.611C154.296 22.611 154.82 22.5168 155.301 22.3284C155.783 22.1399 156.201 21.8992 156.557 21.606C156.913 21.3129 157.196 21.0093 157.405 20.6952C157.636 20.3602 157.751 20.0252 157.751 19.6902V17.4604Z" stroke="black" stroke-width="2" mask="url(#path-1-outside-1_669_1434)"/>
<path d="M172.908 8.10129C174.164 8.10129 175.253 8.32113 176.174 8.76082C177.096 9.17958 177.849 9.73442 178.436 10.4254C179.043 11.0954 179.503 11.8072 179.817 12.561C179.943 12.9379 179.838 13.1368 179.503 13.1577L176.74 13.5032C176.53 13.5451 176.384 13.4508 176.3 13.2205C176.028 12.7599 175.745 12.3516 175.452 11.9957C175.159 11.6397 174.824 11.3571 174.447 11.1477C174.07 10.9383 173.609 10.8336 173.065 10.8336C172.228 10.8336 171.484 11.064 170.835 11.5246C170.207 11.9643 169.715 12.6238 169.359 13.5032C169.024 14.3826 168.857 15.4609 168.857 16.738C168.857 18.0362 169.035 19.1249 169.391 20.0043C169.767 20.8837 170.28 21.5537 170.929 22.0143C171.578 22.454 172.353 22.6738 173.254 22.6738C174.196 22.6738 174.97 22.4331 175.578 21.9515C176.185 21.449 176.75 20.7581 177.274 19.8787C177.336 19.7949 177.399 19.7426 177.462 19.7216C177.525 19.7007 177.629 19.7112 177.776 19.7531L179.755 20.287C179.964 20.3498 180.027 20.5277 179.943 20.8209C179.734 21.3024 179.43 21.8154 179.032 22.3598C178.655 22.9042 178.184 23.4067 177.619 23.8673C177.054 24.307 176.373 24.6734 175.578 24.9665C174.803 25.2387 173.913 25.3748 172.908 25.3748C171.317 25.3748 169.903 25.0189 168.668 24.307C167.433 23.5742 166.459 22.5692 165.747 21.292C165.056 19.9938 164.711 18.4968 164.711 16.8009C164.711 15.084 165.067 13.5765 165.779 12.2783C166.491 10.9593 167.464 9.93333 168.7 9.20051C169.935 8.4677 171.338 8.10129 172.908 8.10129Z" stroke="black" stroke-width="2" mask="url(#path-1-outside-1_669_1434)"/>
<path d="M186.034 18.0257C186.034 18.8841 186.233 19.6588 186.631 20.3498C187.029 21.0198 187.573 21.5537 188.264 21.9515C188.976 22.3284 189.751 22.5168 190.588 22.5168C191.447 22.5168 192.221 22.3388 192.912 21.9829C193.624 21.627 194.294 21.0512 194.922 20.2556C195.006 20.1509 195.079 20.0985 195.142 20.0985C195.205 20.0776 195.31 20.109 195.456 20.1927L197.372 21.0407C197.644 21.1663 197.675 21.3548 197.466 21.606C196.838 22.5273 196.157 23.2706 195.425 23.8359C194.713 24.3803 193.917 24.7781 193.038 25.0293C192.179 25.2596 191.206 25.3748 190.117 25.3748C188.526 25.3748 187.102 25.0189 185.846 24.307C184.589 23.5951 183.595 22.611 182.862 21.3548C182.15 20.0776 181.794 18.612 181.794 16.9579C181.794 15.1363 182.161 13.566 182.894 12.2469C183.647 10.9279 184.652 9.91239 185.909 9.20051C187.165 8.4677 188.547 8.10129 190.054 8.10129C191.645 8.10129 193.027 8.44676 194.2 9.1377C195.393 9.82864 196.325 10.8232 196.995 12.1213C197.665 13.3985 198 14.9583 198 16.8009C198 17.0102 197.979 17.1777 197.937 17.3034C197.916 17.429 197.77 17.5023 197.498 17.5232H186.38C186.254 17.5232 186.16 17.5651 186.097 17.6488C186.055 17.7326 186.034 17.8582 186.034 18.0257ZM193.477 15.1991C193.687 15.1991 193.823 15.1782 193.886 15.1363C193.97 15.0735 194.011 14.9479 194.011 14.7594C194.011 14.1104 193.865 13.4718 193.572 12.8437C193.279 12.2155 192.849 11.7026 192.284 11.3047C191.719 10.886 191.028 10.6766 190.211 10.6766C189.374 10.6766 188.641 10.886 188.013 11.3047C187.385 11.7026 186.903 12.2469 186.568 12.9379C186.254 13.6079 186.097 14.3616 186.097 15.1991H193.477Z" stroke="black" stroke-width="2" mask="url(#path-1-outside-1_669_1434)"/>
</g>
<defs>
<filter id="filter0_d_669_1434" x="0" y="0.757202" width="203" height="38.4856" filterUnits="userSpaceOnUse" color-interpolation-filters="sRGB">
<feFlood flood-opacity="0" result="BackgroundImageFix"/>
<feColorMatrix in="SourceAlpha" type="matrix" values="0 0 0 0 0 0 0 0 0 0 0 0 0 0 0 0 0 0 127 0" result="hardAlpha"/>
<feOffset dy="4"/>
<feGaussianBlur stdDeviation="2"/>
<feComposite in2="hardAlpha" operator="out"/>
<feColorMatrix type="matrix" values="0 0 0 0 0 0 0 0 0 0 0 0 0 0 0 0 0 0 0.25 0"/>
<feBlend mode="normal" in2="BackgroundImageFix" result="effect1_dropShadow_669_1434"/>
<feBlend mode="normal" in="SourceGraphic" in2="effect1_dropShadow_669_1434" result="shape"/>
</filter>
</defs>
</svg>
